<?xml version="1.0" encoding="utf-8"?>
<!-- Generator: Adobe Illustrator 22.1.0, SVG Export Plug-In . SVG Version: 6.00 Build 0)  -->
<svg version="1.1" id="Layer_1" xmlns="http://www.w3.org/2000/svg" xmlns:xlink="http://www.w3.org/1999/xlink" x="0px" y="0px"
	 viewBox="0 0 512 512" style="enable-background:new 0 0 512 512;" xml:space="preserve">
<g>
	<path d="M132,334.6c48.8,3.3,59.2,2.1,59.2,12c0,20.1-65.8,20.1-65.8,1.5C125.4,343,128.7,338.7,132,334.6z M160.1,217.4
		c-32.4,0-33.9,44.7-0.8,44.7C192,262.1,191.2,217.4,160.1,217.4L160.1,217.4z M481,79.2v353.6c0,26.6-21.6,48.2-48.2,48.2H79.2
		C52.6,481,31,459.4,31,432.8V79.2C31,52.6,52.6,31,79.2,31h353.6C459.4,31,481,52.6,481,79.2z M253,148.8c0,14.6,8.4,23,23,23
		c14.8,0,23.2-8.4,23.2-23c0-14.6-8.4-22.4-23.2-22.4C261.4,126.4,253,134.3,253,148.8z M231.1,194.7h-49.8
		c-25.1-6.6-81.9-4.9-81.9,47c0,18.9,9.4,32.1,21.9,38.3c-15.8,14.4-23.2,21.2-23.2,30.9c0,6.9,2.8,13.3,11.2,16.8
		c-8.9,8.4-14.1,14.5-14.1,26c0,20.2,17.6,31.9,63.8,31.9c44.4,0,70.2-16.6,70.2-45.9c0-36.8-28.4-35.5-95.2-39.6l8.4-13.5
		c17.1,4.8,74.5,6.3,74.5-42.6c0-11.7-4.9-19.9-9.4-25.8l23.5-1.8L231.1,194.7z M315.8,305.1l-13.1-1.8c-3.8-0.5-4.1-1-4.1-5.1
		V192.2h-52.8l-2.8,20.7c15.8,5.6,17.1,4.9,17.1,10.2v75.1c0,5.6-0.3,4.6-17.1,6.9v20.1h72.7L315.8,305.1z M416.7,315.3l-6.9-22.5
		c-41.1,15.4-38-12.5-38-16.8v-61h38v-25.5h-36c-2.9,0-2,2.5-2-38.8h-24.3c-2.8,27.8-11.7,39.1-34.2,41.6V215
		c20.6,0,19.9-0.9,19.9,2.6v66.9c0,28.8,11.5,41.1,41.9,41.1C389.7,325.5,405.7,320.7,416.7,315.3L416.7,315.3z"/>
</g>
</svg>
